<svg width="140" height="34" viewBox="0 0 140 34" fill="none" xmlns="http://www.w3.org/2000/svg">
<g clip-path="url(#clip0_78_34)">
<path d="M15.0432 0.0366698C13.2312 0.242623 10.5132 1.09812 8.96677 1.95362C4.81169 4.2191 1.99998 7.75198 0.59412 12.4572C0.312949 13.3761 -0.0150834 15.8792 0.000537196 17.0515C0.000537196 18.0813 0.312949 20.6003 0.500397 21.2023C0.59412 21.4875 0.797188 22.1687 0.969015 22.6915C1.25019 23.5787 2.60918 26.367 2.84349 26.5571C2.89035 26.6046 3.14028 26.9214 3.37459 27.2858C3.95255 28.1572 5.46775 29.7097 6.60806 30.5969C7.48281 31.2781 9.95087 32.7198 10.2633 32.7356C10.3414 32.7356 10.357 32.1336 10.3101 31.3415C10.2008 29.583 10.5288 27.1908 11.2318 24.751C11.3567 24.3391 11.4504 23.8005 11.4504 23.5628C11.4504 23.3252 11.5129 23.0717 11.591 22.9925C11.6691 22.8974 11.8097 22.438 11.8878 21.9627C11.9815 21.4875 12.1378 20.7587 12.2471 20.3468C12.4033 19.7289 12.3877 19.4913 12.169 18.8259C11.8566 17.812 11.841 16.1644 12.1534 15.3722C12.8875 13.487 13.6998 12.7741 15.0744 12.7741C16.7302 12.7741 17.5269 14.0415 17.2145 16.1644C17.0739 17.1308 16.6833 18.6516 16.4334 19.1269C16.3709 19.2695 16.2616 19.6656 16.2147 19.9983C16.1522 20.3468 16.0273 20.8379 15.9492 21.1072C15.7305 21.7251 16.1522 22.9291 16.7146 23.3886C17.2457 23.8163 18.3548 23.943 19.3701 23.7054C20.0886 23.547 20.3854 23.3569 21.1352 22.6281C22.0256 21.7409 22.6973 20.7112 22.6973 20.22C22.6973 20.0775 22.7754 19.8874 22.8691 19.7923C23.3065 19.3487 23.5408 15.895 23.2128 14.4375C22.8535 12.8374 21.7444 11.269 20.3073 10.3502C18.8702 9.41545 15.9023 9.14612 14.0747 9.77982C12.7938 10.2234 11.6535 10.968 10.9193 11.8394C10.2633 12.6156 9.57597 13.883 9.57597 14.3266C9.57597 14.4851 9.49787 14.691 9.40415 14.7861C9.31042 14.8811 9.20108 15.4831 9.15422 16.1327C9.07611 17.0991 9.1386 17.5427 9.41977 18.4932C9.60721 19.1428 9.95087 19.9032 10.1539 20.1884C10.5757 20.7587 10.5757 20.9805 10.1852 22.5014C10.0758 22.9133 9.88838 23.2935 9.77904 23.341C8.79494 23.7212 6.7955 21.329 6.12382 18.9526C5.87389 18.0496 5.85827 14.8336 6.1082 13.883C6.21754 13.487 6.40499 12.9483 6.52995 12.6632C6.65492 12.3938 6.76426 12.1245 6.76426 12.0611C6.76426 11.9978 7.07667 11.4591 7.46719 10.873C9.49787 7.76782 12.7938 6.1202 16.9645 6.1202C17.9174 6.1202 18.9015 6.18357 19.167 6.26278C21.3227 6.94401 21.9006 7.16581 22.7441 7.67277C24.3843 8.67085 25.5715 10.0333 26.7586 12.3146C26.8367 12.4572 26.9461 12.8374 26.993 13.1543C27.0554 13.4711 27.1648 13.7721 27.2429 13.8197C27.321 13.8672 27.3835 14.897 27.3835 16.1168C27.3835 18.3189 27.2273 19.2061 26.5712 21.0122C25.837 22.9925 23.9469 25.1788 22.2287 26.0343C21.2446 26.5095 19.4013 27.0323 18.6672 27.0323C17.6831 27.0323 15.7461 26.2085 15.215 25.5431C14.9651 25.2421 14.7308 25.353 14.7308 25.7808C14.7308 25.9392 14.6683 26.2085 14.5746 26.367C14.4965 26.5095 14.3559 26.9531 14.2778 27.3492C13.8248 29.4404 13.1843 31.1356 12.2002 32.7198C11.9034 33.2109 12.1534 33.4961 12.9656 33.607C13.3718 33.6704 13.9185 33.7813 14.1684 33.8605C14.7933 34.0664 18.1829 34.0347 19.3232 33.8288C20.3542 33.6387 22.0256 33.1634 22.7754 32.8465C27.4928 30.8821 31.0699 26.8898 32.6164 21.8043C33.4443 19.0952 33.4911 15.9426 32.7413 12.7741C32.4914 11.7443 32.4133 11.5067 31.7416 9.92241C30.7731 7.6094 28.5863 4.90033 26.3681 3.23686C24.4624 1.81103 22.5879 0.987221 19.6669 0.274308C18.8546 0.0841974 15.9648 -0.0742279 15.0432 0.0366698ZM56.7034 5.75582C56.0942 5.85088 55.1257 6.8648 54.8757 7.65693C54.6102 8.52826 54.8757 9.46297 55.6255 10.1917C57.2813 11.8235 60.1555 10.2868 59.7962 7.94209C59.5775 6.45289 58.2342 5.50234 56.7034 5.75582ZM39.6769 6.69053C39.5363 6.84896 39.5363 25.955 39.6925 26.1768C39.7706 26.3036 40.4423 26.3511 41.7544 26.3353L43.707 26.3194L43.7851 23.1034C43.8476 20.4894 43.9101 19.8557 44.0975 19.7448C44.2225 19.6656 45.2847 19.5863 46.4562 19.5863C49.018 19.5863 50.0958 19.3962 51.2674 18.7625C52.7982 17.9229 53.6886 16.7189 54.1728 14.8019C54.4696 13.5979 54.4696 12.7265 54.1572 11.4908C53.876 10.3818 53.7511 10.1125 53.0794 9.20949C52.2515 8.08467 51.408 7.46682 50.0334 6.9757C49.2679 6.72222 48.6275 6.67469 44.488 6.62716C41.9106 6.59548 39.7394 6.62716 39.6769 6.69053ZM48.2526 10.6353C49.2992 10.968 49.8147 11.4433 50.049 12.2988C50.3458 13.4236 50.1271 14.4692 49.471 15.1029C48.7525 15.7841 48.112 15.9426 46.0189 15.9426C44.6442 15.9426 44.2225 15.895 44.035 15.6891C43.832 15.499 43.7851 15.0395 43.7851 13.2335C43.7851 10.3818 43.7695 10.3977 45.9408 10.3977C46.878 10.3977 47.784 10.4927 48.2526 10.6353ZM75.6512 9.70061C75.6512 10.7937 75.5731 11.8235 75.4949 11.9978C75.3856 12.2037 75.1669 12.2988 74.792 12.2988C74.5109 12.2988 74.2453 12.3622 74.2141 12.4572C74.1984 12.5364 74.1984 13.0909 74.2453 13.6771C74.3234 14.7227 74.339 14.7385 74.8076 14.8494C75.0732 14.897 75.37 14.992 75.4637 15.0554C75.6043 15.1346 75.6512 16.3862 75.6512 19.5547C75.6512 23.8163 75.6668 23.9747 76.0104 24.6084C76.729 25.955 77.8537 26.4303 80.1343 26.367L81.6651 26.3194L81.712 24.7827L81.7588 23.2301H81.3683C80.7747 23.2301 79.9 22.7549 79.8062 22.3746C79.7594 22.1845 79.7125 20.5052 79.7125 18.62C79.7125 16.0218 79.7594 15.1504 79.9156 15.0237C80.0249 14.9286 80.4623 14.8336 80.8841 14.8019L81.6651 14.7544V12.378L80.806 12.3305C80.3373 12.2988 79.9 12.1879 79.8375 12.0928C79.775 11.9819 79.7125 10.9522 79.7125 9.79567V7.70445H75.6512V9.70061ZM133.713 7.79951C133.65 7.86288 133.604 8.86096 133.604 10.0175C133.604 12.2671 133.588 12.2988 132.729 12.2988C132.338 12.2988 132.338 12.3146 132.385 13.5187C132.432 14.7227 132.448 14.7544 132.854 14.8019C133.073 14.8336 133.338 14.9445 133.416 15.0395C133.51 15.1504 133.604 17.0674 133.65 19.5071C133.697 21.8518 133.775 23.9906 133.838 24.2441C134.025 24.9411 134.994 25.8283 135.915 26.1293C136.946 26.4778 139.571 26.5095 139.836 26.1768C139.961 26.0343 140.008 25.4639 139.977 24.6401L139.93 23.3093L139.383 23.2143C138.79 23.1192 138.118 22.8024 137.946 22.5331C137.884 22.438 137.821 20.7112 137.821 18.6992C137.821 14.5643 137.727 14.8336 139.086 14.8336C139.977 14.8336 140.055 14.6752 139.977 13.2335L139.93 12.378L138.915 12.2988L137.899 12.2196L137.821 10.0016L137.743 7.78367L135.775 7.73614C134.697 7.7203 133.775 7.75198 133.713 7.79951ZM67.919 11.9186C67.1535 12.1245 66.2632 12.6473 65.6696 13.2652C64.951 14.0256 64.7636 13.9781 64.6855 13.0117L64.6386 12.378H60.7335V26.3194L62.7017 26.3511C64.6386 26.3986 64.6855 26.3828 64.7792 26.0343C64.8261 25.8441 64.8729 23.8321 64.8729 21.5508C64.8729 17.0357 64.8886 16.909 65.8102 16.0218C66.2163 15.6257 66.435 15.5465 67.3097 15.499L68.3251 15.4356L68.9343 16.0851C69.6528 16.8456 69.5747 16.1168 69.6372 22.6756C69.6528 24.4183 69.6685 25.955 69.6841 26.1135C69.7153 26.3353 69.9653 26.367 71.7148 26.3353L73.6986 26.3194V15.198L73.2456 14.2949C72.4645 12.7265 71.2618 11.9819 69.4185 11.8869C68.7625 11.871 68.0908 11.871 67.919 11.9186ZM87.4447 11.9186C85.7577 12.378 84.9454 12.8374 83.8988 13.883C82.493 15.3247 81.8525 17.004 81.8525 19.2695C81.8682 23.246 84.3206 26.1927 87.9446 26.5412C91.0375 26.8422 93.4274 25.9234 94.9582 23.848C95.1769 23.547 95.6455 22.5806 95.6455 22.4063C95.6455 22.3429 94.7395 22.2796 93.6461 22.2796H91.6467L91.1781 22.7707C90.6313 23.341 89.8659 23.7054 89.163 23.7054C88.4601 23.7054 87.3822 23.1984 86.8824 22.6598C86.5075 22.232 85.9608 20.9963 85.9608 20.5686C85.9608 20.426 87.1011 20.3785 90.7719 20.3785C93.4118 20.3785 95.6455 20.3151 95.7549 20.2517C95.9892 20.0933 95.7705 17.5743 95.4269 16.6555C94.7239 14.7385 93.3962 13.1226 92.0528 12.5523C91.6623 12.3938 91.2093 12.1879 91.0531 12.1087C90.725 11.9344 87.9446 11.7918 87.4447 11.9186ZM90.4907 15.3881C91.0999 15.8158 91.631 16.8297 91.5529 17.4001C91.5061 17.7645 91.4748 17.7645 88.835 17.812C85.7889 17.8595 85.7733 17.8437 86.2576 16.703C86.6012 15.9109 87.2885 15.198 87.929 14.992C88.6631 14.7544 89.8503 14.9445 90.4907 15.3881ZM110.563 11.9186C108.751 12.4097 107.486 13.2177 106.502 14.4692C106.111 14.9762 105.799 15.4514 105.799 15.5465C105.799 15.6257 105.69 15.9109 105.549 16.1802C105.408 16.4337 105.205 17.2258 105.096 17.9387C104.549 21.329 106.049 24.4975 108.861 25.9234L109.938 26.4778H112.203C114.546 26.4778 114.75 26.4303 116.187 25.654C117.233 25.0837 118.951 22.8658 118.686 22.4222C118.623 22.3429 117.733 22.2796 116.687 22.2796H114.765L114.375 22.739C112.813 24.5292 109.892 23.6104 109.267 21.1231C109.173 20.7904 109.173 20.5052 109.251 20.4418C109.329 20.3943 111.563 20.3626 114.234 20.3785C118.046 20.3785 119.076 20.3468 119.092 20.1884C119.233 18.208 118.295 15.2772 117.124 14.0098C116.468 13.2969 115.328 12.5047 114.765 12.3622C114.515 12.2988 114.234 12.1879 114.125 12.1087C113.906 11.9344 111.047 11.7918 110.563 11.9186ZM113 15.0079C113.703 15.2613 114.515 16.1485 114.64 16.8297C114.828 17.8595 114.843 17.8595 111.938 17.812C109.329 17.7645 109.314 17.7645 109.267 17.4001C109.204 16.9565 109.751 15.8634 110.22 15.4514C110.891 14.8811 112.063 14.691 113 15.0079ZM124.153 11.9186C120.951 12.6948 119.795 13.8514 119.779 16.2594C119.779 18.8576 121.06 19.9507 124.856 20.632C127.465 21.0914 128.215 21.5033 128.183 22.5014C128.168 23.2143 127.683 23.6737 126.715 23.8797C125.497 24.149 124.544 23.848 123.778 22.9766L123.169 22.2796H121.279C119.748 22.2796 119.389 22.3271 119.389 22.5014C119.389 22.9608 120.014 24.1648 120.529 24.7669C121.013 25.2897 121.388 25.5431 122.857 26.2561C122.997 26.3353 123.763 26.462 124.528 26.5571C125.95 26.7313 128.418 26.5729 129.042 26.2561C129.183 26.1927 129.589 25.9867 129.933 25.8283C130.823 25.4006 131.667 24.4342 131.979 23.5153C132.323 22.4697 132.229 21.0122 131.745 19.9983C131.167 18.8101 129.636 17.9546 127.355 17.5427C124.419 17.0199 124.372 17.004 123.903 16.5446C123.341 15.9584 123.341 15.7525 123.903 15.1188C124.356 14.6118 124.387 14.596 125.637 14.596C126.887 14.596 126.918 14.6118 127.371 15.1188C127.621 15.4039 127.824 15.7366 127.824 15.8634C127.824 16.0535 128.152 16.101 129.777 16.101C131.932 16.101 131.87 16.1485 131.495 15.0237C130.808 13.0275 129.042 12.0136 126.106 11.9027C125.2 11.871 124.325 11.871 124.153 11.9186ZM103.378 12.2513C102.69 12.4889 101.738 13.281 101.441 13.8514C101.144 14.4217 100.878 14.184 100.8 13.2335L100.722 12.378H96.8171L96.7702 19.0319C96.7546 22.6915 96.7702 25.8441 96.8171 26.0501C96.8952 26.3986 96.9421 26.3986 98.8165 26.367C99.8943 26.3511 100.769 26.2561 100.832 26.161C100.894 26.0818 100.957 24.4025 100.957 22.438C100.957 19.3329 100.988 18.7784 101.253 18.0813C101.8 16.6396 102.972 15.7841 104.44 15.7841C104.846 15.7841 105.018 15.7049 105.065 15.499C105.174 15.0395 105.19 12.9008 105.096 12.4255C105.002 12.0453 104.924 11.9819 104.502 11.9978C104.221 12.0136 103.721 12.1245 103.378 12.2513ZM55.2663 12.4889C55.2194 12.5998 55.2038 15.7208 55.2194 19.4279L55.2663 26.161L57.1251 26.2402C58.2498 26.2877 59.0621 26.2561 59.187 26.161C59.3589 26.0343 59.4057 24.6876 59.4057 19.3012C59.4213 15.6257 59.3745 12.5364 59.3276 12.4572C59.1714 12.2196 55.3444 12.2513 55.2663 12.4889Z" fill="#828282"/>
</g>
<defs>
<clipPath id="clip0_78_34">
<rect width="140" height="34" fill="white"/>
</clipPath>
</defs>
</svg>
