<svg width="136" height="26" viewBox="0 0 136 26" fill="none" xmlns="http://www.w3.org/2000/svg">
<path d="M8.6156 25.5993H3.49098V12.9806H0V8.8722H3.49085V5.94879C3.49085 2.48454 5.03486 0 10.1456 0C11.2265 0 12.9235 0.215206 12.9235 0.215206V4.03007H11.1411C9.32498 4.03007 8.61587 4.57574 8.61587 6.08433V8.8722H12.8555L12.478 12.9806H8.61574L8.6156 25.5993ZM20.3742 8.54388C20.2995 8.54388 20.2227 8.54657 20.1466 8.54845C15.3948 8.54845 13.2207 12.0791 13.2207 17.0909C13.2207 23.4044 16.0408 25.9312 20.1838 25.9312C22.5541 25.9312 24.1114 24.9457 25.058 23.1067V25.601H29.9322V8.87395H25.058V11.4463C24.2851 9.79132 22.6843 8.5635 20.3742 8.54388ZM21.6135 12.4964C23.6093 12.4964 24.8072 13.8715 24.8072 16.2104L24.8118 18.5993C24.8118 20.1757 23.8224 22.02 21.6135 22.02C18.2176 22.02 18.3083 18.3981 18.3083 17.1917C18.3083 13.1339 20.1177 12.4964 21.6135 12.4964ZM31.9007 17.2384C31.9007 15.2057 31.8022 8.55476 40.5748 8.55476C44.0962 8.55476 45.5667 9.66075 45.5667 9.66075L44.3848 13.2815C44.3848 13.2815 42.9163 12.4827 41.0028 12.4827C38.5519 12.4827 36.9881 13.8861 36.9881 16.3554L36.9908 18.1259C36.9908 20.4985 38.4997 22.0824 41.0078 22.0824C42.7511 22.0824 44.3578 21.2761 44.3578 21.2761L45.5366 24.8212C45.5366 24.8212 44.1921 25.9342 40.5994 25.9342C32.2466 25.9342 31.9008 19.967 31.9008 17.2384H31.9007ZM74.1461 8.54845C78.8981 8.54845 81.1065 12.0791 81.1065 17.0909C81.1065 23.4044 78.2862 25.9312 74.1433 25.9312C71.7729 25.9312 70.0207 24.9459 69.0741 23.1067V25.601L64.2612 25.5991V0.508595L69.3713 0.0683769V11.2197C70.1088 9.26876 72.5326 8.54845 74.1463 8.54845H74.1461ZM72.7135 12.4964C70.7177 12.4964 69.3713 13.8715 69.3713 16.2104L69.3665 18.5993C69.3635 20.1757 70.299 22.02 72.7135 22.02C76.1094 22.02 76.0187 18.3981 76.0187 17.1917C76.0187 13.1339 74.2095 12.4964 72.7135 12.4964ZM54.4331 8.56229C49.0434 8.56229 46.198 11.4649 46.198 16.6231V17.5815C46.198 24.2763 50.1938 26 54.9576 26C59.588 26 61.6839 24.7207 61.6839 24.7207L60.7277 21.314C60.7277 21.314 58.2623 22.3501 55.5703 22.3501C52.7796 22.3501 51.5794 21.6475 51.2717 18.9984H62.0924V16.2654C62.0924 10.67 58.899 8.56215 54.4329 8.56215L54.4331 8.56229ZM54.5629 11.9736C56.4286 11.9736 57.6375 13.1036 57.5711 15.7244H51.2811C51.3902 12.9661 52.6939 11.9737 54.5629 11.9737V11.9736ZM91.2957 8.53932C85.7609 8.53932 82.8471 11.6202 82.8471 17.1412C82.8471 24.7164 87.8699 25.9358 91.305 25.9358C96.3337 25.9358 99.6793 23.2616 99.6793 17.21C99.6793 10.9114 95.9175 8.53932 91.2957 8.53932ZM91.2261 12.5101C93.6598 12.5101 94.6242 14.3093 94.6242 16.3572V18.118C94.6242 20.5989 93.2748 22.0339 91.2168 22.0339C89.2922 22.0339 87.9395 20.6916 87.9395 18.118V16.3572C87.9395 13.6125 89.5491 12.5101 91.2261 12.5101ZM109.859 8.53932C104.325 8.53932 101.411 11.6202 101.411 17.1412C101.411 24.7164 106.434 25.9358 109.869 25.9358C114.897 25.9358 118.243 23.2616 118.243 17.21C118.243 10.9114 114.481 8.53932 109.859 8.53932ZM109.79 12.5101C112.224 12.5101 113.188 14.3093 113.188 16.3572V18.118C113.188 20.5989 111.838 22.0339 109.781 22.0339C107.856 22.0339 106.503 20.6916 106.503 18.118V16.3572C106.503 13.6125 108.113 12.5101 109.79 12.5101ZM120.174 25.5993V0.508595L125.299 0.0683769V16.8857L130.383 8.8722H135.796L130.492 17.1719L136 25.5993H130.572L125.299 17.4164V25.5993H120.174Z" fill="#828282"/>
</svg>
