<svg width="112" height="36" viewBox="0 0 112 36" fill="none" xmlns="http://www.w3.org/2000/svg">
<g clip-path="url(#clip0_78_23)">
<path d="M13.7941 0H14.7901C18.2478 0.0740186 21.6492 1.44336 24.0922 3.86747C23.1902 4.7742 22.2694 5.64392 21.3861 6.55065C20.0143 5.32934 18.3606 4.3856 16.5565 4.05252C13.888 3.49738 11.0128 3.997 8.77654 5.49588C6.33354 7.06878 4.67982 9.73345 4.32277 12.5832C3.92813 15.3959 4.7362 18.3566 6.59663 20.5402C8.3819 22.6682 11.1068 24.0005 13.9256 24.0931C16.5565 24.2411 19.3002 23.4454 21.217 21.6319C22.7204 20.3551 23.4157 18.4121 23.6412 16.5247C20.5217 16.5247 17.4022 16.5432 14.2827 16.5247V12.7127H27.4185C28.095 16.8022 27.1178 21.4099 23.9607 24.3336C21.856 26.4061 18.9432 27.6274 15.974 27.868C13.0988 28.1456 10.1296 27.6089 7.57383 26.2396C4.51069 24.6297 2.0677 21.9095 0.864991 18.7082C-0.262545 15.766 -0.281337 12.4351 0.77103 9.47438C1.72944 6.7727 3.57108 4.3856 5.9389 2.72018C8.21277 1.07327 10.9752 0.166542 13.7941 0Z" fill="#828282"/>
<path d="M89.1516 0.962402H93.1731V27.387C91.8389 27.387 90.4859 27.4055 89.1516 27.3685C89.1704 18.5788 89.1516 9.7706 89.1516 0.962402Z" fill="#828282"/>
<path d="M36.3629 10.1222C38.8434 9.65952 41.5307 10.1777 43.5791 11.6395C45.4395 12.9348 46.7362 14.9703 47.1308 17.1909C47.6382 19.763 46.9993 22.5757 45.308 24.6112C43.4851 26.8872 40.4972 28.1085 37.5844 27.9235C34.9159 27.7755 32.3225 26.4616 30.744 24.3151C28.9587 21.9465 28.5265 18.6897 29.5037 15.9141C30.4809 12.9348 33.2433 10.6588 36.3629 10.1222ZM36.9266 13.638C35.9119 13.8971 34.9722 14.4707 34.2957 15.2849C32.4729 17.4314 32.5856 20.9288 34.5964 22.9273C35.7427 24.0746 37.4716 24.6112 39.069 24.2966C40.5535 24.0375 41.8502 23.0568 42.5643 21.7615C43.8046 19.5595 43.4476 16.5247 41.5495 14.8038C40.328 13.6935 38.5428 13.2309 36.9266 13.638Z" fill="#828282"/>
<path d="M56.2813 10.1221C59.1189 9.5854 62.2196 10.3626 64.3432 12.3241C67.8009 15.3774 68.1768 21.0953 65.2264 24.6112C63.4411 26.8318 60.5471 28.0531 57.6907 27.9236C54.9658 27.8495 52.2785 26.5172 50.6624 24.3151C48.8395 21.891 48.4449 18.5602 49.4785 15.729C50.512 12.8422 53.2181 10.6402 56.2813 10.1221ZM56.845 13.6379C55.8303 13.897 54.8906 14.4707 54.2141 15.2664C52.4101 17.3759 52.4852 20.8178 54.4208 22.8348C55.5672 24.0376 57.3524 24.6297 59.0062 24.2966C60.472 24.0191 61.7874 23.0568 62.5015 21.7615C63.723 19.5409 63.366 16.5062 61.4492 14.7852C60.2277 13.675 58.4424 13.2308 56.845 13.6379Z" fill="#828282"/>
<path d="M73.1776 11.1954C75.3387 9.86308 78.214 9.49298 80.5442 10.6403C81.2771 10.9548 81.8785 11.4915 82.461 12.0281C82.4798 11.5285 82.461 11.0104 82.4798 10.4922C83.7389 10.5107 84.998 10.4922 86.2759 10.5107V26.8318C86.2571 29.2929 85.6181 31.9021 83.8141 33.697C81.8409 35.677 78.8153 36.2877 76.0904 35.8806C73.1776 35.455 70.6407 33.3639 69.5131 30.7178C70.6407 30.1811 71.8246 29.7555 72.9897 29.2559C73.6474 30.7733 74.9817 32.0686 76.6542 32.3647C78.3267 32.6608 80.2623 32.2537 81.3523 30.8843C82.5174 29.478 82.5174 27.5535 82.461 25.8326C81.5966 26.6653 80.6006 27.4055 79.3979 27.683C76.7858 28.4047 73.9105 27.5165 71.8998 25.777C69.8702 24.0376 68.6675 21.3544 68.7802 18.6898C68.8366 15.6735 70.5655 12.7683 73.1776 11.1954ZM77.0676 13.564C75.9213 13.749 74.8501 14.3782 74.1172 15.2479C72.3508 17.3204 72.3508 20.6328 74.136 22.6683C75.1508 23.8711 76.7858 24.5372 78.3643 24.3707C79.8489 24.2227 81.2207 23.2974 81.9536 22.0206C83.1939 19.8556 82.9872 16.9133 81.3147 15.0259C80.2811 13.8601 78.6274 13.2864 77.0676 13.564Z" fill="#828282"/>
<path d="M97.9997 12.1392C100.255 10.0667 103.731 9.36353 106.625 10.4553C109.369 11.4731 111.117 14.0452 112 16.6914C107.922 18.3568 103.863 20.0037 99.785 21.6691C100.349 22.7239 101.213 23.6861 102.378 24.0747C104.013 24.6484 105.968 24.4448 107.339 23.3715C107.884 22.9644 108.317 22.4278 108.73 21.9097C109.764 22.5943 110.797 23.2605 111.831 23.9452C110.365 26.1102 107.903 27.6276 105.254 27.8682C102.322 28.2198 99.2024 27.1095 97.3044 24.8519C94.1849 21.299 94.4855 15.3405 97.9997 12.1392ZM100.01 15.5626C99.3715 16.4693 99.1084 17.5796 99.1272 18.6714C101.852 17.5611 104.577 16.4508 107.302 15.322C106.851 14.2858 105.761 13.6566 104.652 13.4901C102.867 13.1755 101.006 14.1192 100.01 15.5626Z" fill="#828282"/>
</g>
<defs>
<clipPath id="clip0_78_23">
<rect width="112" height="36" fill="white"/>
</clipPath>
</defs>
</svg>
