<svg width="134" height="34" viewBox="0 0 134 34" fill="none" xmlns="http://www.w3.org/2000/svg">
<path d="M43.2686 13.2956C43.2686 10.8706 40.9311 8.29513 36.8861 8.29513C32.3437 8.29513 27.3537 11.6567 26.5911 18.363C25.812 25.1363 29.9896 28.1466 34.2004 28.1466C38.4112 28.1466 40.6161 26.4909 42.8707 24.2833C40.9311 21.8249 38.4278 22.9621 37.947 23.213C37.4166 23.4806 36.7369 23.8485 35.3443 23.8485C33.7197 23.8485 32.0619 23.1126 32.0619 20.0521C42.4728 19.0152 43.2686 15.7206 43.2686 13.2956ZM38.1128 13.697C38.0465 14.4496 37.7481 15.7373 32.4763 16.4565C33.587 12.4761 35.709 12.1751 36.6871 12.1751C37.5989 12.1751 38.1791 12.8942 38.1128 13.697ZM20.4738 14.3492C20.4738 14.3492 18.2358 21.4402 18.0534 22.0256C17.9871 21.4235 16.3459 8.69651 16.3459 8.69651C12.533 8.69651 10.4939 11.4393 9.41631 14.3325C9.41631 14.3325 6.69751 21.4402 6.46542 22.0423C6.44884 21.4904 6.05097 14.4161 6.05097 14.4161C5.81888 10.8706 2.60275 8.71323 0 8.71323L3.14982 27.9961C7.14512 27.9793 9.30026 25.2533 10.4276 22.3601C10.4276 22.3601 12.8314 16.0885 12.9308 15.8042C12.9474 16.0718 14.655 27.9961 14.655 27.9961C18.6668 27.9961 20.822 25.4373 21.9824 22.6444L27.6024 8.71323C23.6402 8.71323 21.5514 11.4393 20.4738 14.3492ZM57.9899 8.26168C55.5197 8.26168 53.6298 9.61633 52.0384 11.6065V11.5898L53.4641 0C50.1816 0 47.5126 2.87654 46.9986 7.15789L44.5119 27.8455C46.4018 27.8455 48.4078 27.2937 49.4853 25.8888C50.4469 27.1431 51.8892 28.1466 54.0277 28.1466C59.5648 28.1466 63.3611 21.6576 63.3611 15.5701C63.328 10.0177 60.6589 8.26168 57.9899 8.26168ZM57.4759 18.2125C56.8957 21.6075 55.0224 23.9154 53.2154 23.9154C51.3918 23.9154 50.6126 23.0959 50.6126 23.0959C50.9608 20.119 51.1763 18.2961 51.8394 16.7241C52.5025 15.152 54.0774 12.6434 55.7187 12.6434C57.3267 12.6434 58.0562 14.8008 57.4759 18.2125ZM77.1872 8.71323H73.3245L73.3411 8.51254C73.6063 5.97049 74.2031 4.63256 76.1759 4.41515C77.5187 4.28136 78.1156 3.57895 78.2648 2.80964C78.3808 2.20757 78.7455 0.117068 78.7455 0.117068C70.987 0.0668962 68.55 3.44516 67.9201 8.59616L67.9035 8.71323H67.8206C66.5607 8.71323 65.1681 10.1515 64.936 11.9744L64.8532 12.6434H67.4393L65.2676 30.7388L64.6045 33.9833C64.6874 33.9833 64.7868 34 64.8697 34C68.5003 33.8662 70.8212 30.9729 71.3351 26.7752L73.0261 12.6434H74.2363C75.4299 12.6434 76.8225 11.4393 77.0711 9.43237L77.1872 8.71323ZM97.2797 8.37875C92.8202 8.37875 88.6094 11.6901 87.3163 16.8913C86.0233 22.0925 87.9795 28.2469 94.5444 28.2469C101.093 28.2469 104.872 21.8416 104.872 16.5066C104.872 11.2051 101.308 8.37875 97.2797 8.37875ZM99.0867 18.0453C98.8546 20.4033 97.8268 23.9823 95.0085 23.9823C92.1737 23.9823 92.5716 19.8013 92.8534 17.8111C93.1518 15.6872 94.3288 12.6601 96.8653 12.6601C99.1365 12.6601 99.352 15.3861 99.0867 18.0453ZM126.905 14.3492C126.905 14.3492 124.667 21.4402 124.484 22.0256C124.418 21.4235 122.777 8.69651 122.777 8.69651C118.964 8.69651 116.925 11.4393 115.847 14.3325C115.847 14.3325 113.128 21.4402 112.896 22.0423C112.88 21.4904 112.482 14.4161 112.482 14.4161C112.25 10.8706 109.034 8.71323 106.431 8.71323L109.564 27.9961C113.559 27.9793 115.714 25.2533 116.842 22.3601C116.842 22.3601 119.246 16.0885 119.328 15.8042C119.362 16.0718 121.053 27.9961 121.053 27.9961C125.064 27.9961 127.22 25.4373 128.38 22.6444L134 8.71323C130.054 8.71323 127.966 11.4393 126.905 14.3492ZM80.8343 0.117068L77.5851 26.5578L76.9219 29.819C77.0048 29.819 77.1043 29.8357 77.1872 29.8357C80.6851 29.7855 83.1718 26.6916 83.636 22.7949L85.5093 7.62617C86.073 2.99361 83.3376 0.117068 80.8343 0.117068Z" fill="#828282"/>
</svg>
