<svg width="126" height="28" viewBox="0 0 126 28" fill="none" xmlns="http://www.w3.org/2000/svg">
<g clip-path="url(#clip0_78_36)">
<path d="M21.0148 27.9641L12.7578 27.8122C10.0844 27.7593 7.40431 27.865 4.78338 27.3167C0.796148 26.4975 0.513692 22.4807 0.218098 19.1114C-0.189164 14.3745 -0.0315142 9.55169 0.737029 4.85444C1.17057 2.21843 2.87844 0.64607 5.51908 0.4743C14.4329 -0.146715 23.4058 -0.0740436 32.2999 0.216644C33.2392 0.243071 34.1851 0.388415 35.1113 0.553578C39.6831 1.35958 39.7948 5.91148 40.0904 9.74328C40.386 13.6147 40.2612 17.506 39.6963 21.351C39.243 24.5353 38.376 27.2044 34.7172 27.462C30.1322 27.799 25.6523 28.0698 21.0542 27.9839C21.0542 27.9641 21.0279 27.9641 21.0148 27.9641ZM16.1604 19.9041C19.6156 17.909 23.0051 15.9468 26.4405 13.9649C22.9788 11.9697 19.5959 10.0075 16.1604 8.02558V19.9041Z" fill="#828282"/>
<path d="M106.319 24.3437C106.162 24.9911 106.024 25.4998 105.886 26.0416H102.654V0.969482H106.424V10.2187C106.621 9.96768 106.72 9.86198 106.805 9.74967C107.449 8.85777 108.283 8.27639 109.361 8.05177C111.075 7.71483 112.54 8.47459 113.059 10.1328C113.394 11.1635 113.61 12.2668 113.637 13.3437C113.689 16.1118 113.65 18.8734 113.551 21.6416C113.512 22.4872 113.256 23.3527 112.934 24.1455C111.876 26.7617 108.421 27.1581 106.707 24.892C106.602 24.7533 106.503 24.6013 106.319 24.3437ZM106.503 17.4464V22.0314C106.503 22.7779 106.897 23.2338 107.64 23.4055C108.369 23.5773 108.96 23.2932 109.255 22.6127C109.38 22.3286 109.505 22.0314 109.512 21.7341C109.584 18.9329 109.65 16.1317 109.669 13.3238C109.669 12.8019 109.544 12.2602 109.387 11.7515C109.091 10.8332 108.277 10.5623 107.475 11.0974C106.871 11.507 106.503 12.0884 106.503 12.8614V17.4464ZM96.256 8.40852H100.204V26.0548H97.1231C97.0114 25.3875 96.8997 24.7004 96.7684 23.8944C96.5582 24.2049 96.4334 24.4031 96.302 24.6013C95.2773 26.0878 93.8256 26.5965 92.1111 26.3256C90.6463 26.0878 89.7661 24.9515 89.569 23.0884C89.5099 22.5335 89.4836 21.9719 89.4836 21.4169C89.4705 17.2878 89.4836 13.1455 89.4836 9.01633V8.39531H93.4774V9.11543C93.4774 13.1058 93.4643 17.0896 93.4906 21.08C93.4906 21.6482 93.5497 22.2362 93.6482 22.8043C93.7599 23.3857 94.1803 23.5971 94.7452 23.5575C95.6582 23.4848 96.2888 22.8043 96.2888 21.8926V9.18811C96.256 8.93045 96.256 8.69261 96.256 8.40852ZM69.0746 8.39531H73.0421V9.14186C73.0421 13.1124 73.0289 17.0764 73.0552 21.0338C73.0552 21.6019 73.1078 22.1899 73.226 22.7449C73.3771 23.3989 73.7581 23.6103 74.4084 23.5244C75.3083 23.3989 75.8535 22.7713 75.8601 21.853V9.21453V8.42174H79.8079V26.0548H76.7403C76.6286 25.4007 76.5169 24.7268 76.3724 23.8746C76.1754 24.1719 76.0637 24.3437 75.952 24.522C74.9273 26.035 73.4887 26.5899 71.7349 26.319C70.3292 26.1076 69.4687 25.0638 69.2059 23.3527C69.1337 22.8175 69.0811 22.289 69.0811 21.7539C69.068 17.4662 69.068 13.1587 69.068 8.87099L69.0746 8.39531ZM67.0382 17.8163C67.0251 18.4109 66.9857 19.0055 66.9528 19.6001C66.8018 21.3839 66.7295 23.9142 65.2975 25.2157C64.3845 26.035 63.2284 26.3323 62.0329 26.3719C61.5008 26.3851 60.9622 26.3851 60.4301 26.3124C57.9143 25.9293 56.745 24.8127 56.3246 22.0314C55.8451 18.8205 55.8057 15.5569 56.3772 12.3461C56.9684 9.02294 59.0047 7.84696 62.1708 8.06498C65.1267 8.27639 66.4471 10.2253 66.7952 13.0001C66.9857 14.5923 67.0777 16.2043 67.0382 17.8163ZM63.0182 17.2085C63.0182 16.0788 63.0445 14.9425 63.005 13.8127C62.9788 13.1587 62.8934 12.498 62.7554 11.8506C62.5978 11.104 62.1248 10.7473 61.5336 10.7605C60.9556 10.7737 60.5483 11.1304 60.3381 11.8241C60.2659 12.0818 60.187 12.3461 60.187 12.6037C60.187 14.3743 60.1739 16.1515 60.1608 17.922C60.1476 19.5737 59.9374 21.3046 60.4564 22.8836C60.614 23.3659 61.0213 23.6302 61.5533 23.6302C62.0723 23.6302 62.4138 23.3725 62.6043 22.91C62.7554 22.5533 62.8868 22.1635 62.8868 21.7803C62.9328 20.2608 63.0182 18.7347 63.0182 17.2085ZM50.531 13.8854C50.8791 12.1743 51.2076 10.5028 51.5689 8.82474C52.0221 6.69081 52.5279 4.55687 52.9746 2.41633C53.0862 1.89441 53.2964 1.76888 53.7891 1.7821C54.8467 1.82174 55.9239 1.79531 57.0538 1.79531C56.6859 3.15627 56.3246 4.45117 55.9699 5.72624C54.8467 9.72985 53.7234 13.7467 52.6133 17.7635C52.5279 18.074 52.4885 18.4109 52.4885 18.7413C52.4753 20.9347 52.4885 23.1214 52.4885 25.3148V26.0284H48.6326C48.6195 25.8302 48.5932 25.632 48.5932 25.4338C48.5932 24.1917 48.4947 22.9431 48.6064 21.7142C48.8888 18.7611 47.9561 16.0458 47.2006 13.2974C46.2022 9.66378 45.1906 6.01693 44.1922 2.3833C44.1396 2.21152 44.1199 2.02654 44.0674 1.81513H48.002C48.8297 5.82534 49.6639 9.83555 50.531 13.8854ZM125.973 18.4902H119.325C119.398 19.8314 119.424 21.1064 119.562 22.3683C119.66 23.247 120.14 23.6235 120.895 23.6302C121.683 23.6434 122.143 23.247 122.327 22.3749C122.386 22.0908 122.426 21.8067 122.452 21.516C122.478 21.2584 122.491 20.9809 122.511 20.6109C123.634 20.6704 124.731 20.7365 125.815 20.7827C126.446 22.6656 125.309 25.0836 123.398 25.8302C121.894 26.4247 120.35 26.4247 118.813 25.9689C117.677 25.632 116.829 24.9052 116.448 23.7887C116.093 22.7449 115.758 21.6548 115.686 20.5647C115.489 17.8758 115.417 15.1605 115.824 12.465C115.896 12.0157 116.021 11.5863 116.159 11.1503C116.711 9.35327 117.913 8.24997 119.772 8.06498C120.784 7.96588 121.828 8.00552 122.826 8.17729C124.442 8.46138 125.303 9.63075 125.677 11.1635C125.848 11.8836 125.973 12.6235 125.999 13.3569C126.006 15.0416 125.973 16.713 125.973 18.4902ZM122.196 16.1713C122.196 14.8434 122.209 13.5947 122.183 12.3395C122.183 12.0422 122.071 11.7316 121.959 11.4476C121.736 10.8926 121.27 10.7407 120.711 10.7407C120.153 10.7407 119.798 11.0247 119.66 11.5335C119.24 13.0596 119.378 14.6187 119.391 16.1845C120.396 16.1713 121.309 16.1713 122.196 16.1713Z" fill="#828282"/>
<path d="M82.8552 5.03278H78.9468V1.84839H90.6128V5.01296H86.7307V26.0286H82.8617L82.8552 5.03278Z" fill="#828282"/>
</g>
<defs>
<clipPath id="clip0_78_36">
<rect width="126" height="28" fill="white"/>
</clipPath>
</defs>
</svg>
