<svg width="124" height="123" viewBox="0 0 124 123" fill="none" xmlns="http://www.w3.org/2000/svg">
<rect x="0.5" width="123" height="123" rx="61.5" fill="#EF0454"/>
<rect x="44.5" y="44" width="36" height="36" rx="18" fill="white" fill-opacity="0.16"/>
<path d="M49.1666 88.6666H41.1666C39.7522 88.6666 38.3956 88.1047 37.3954 87.1045C36.3952 86.1043 35.8333 84.7477 35.8333 83.3333V64.6666C35.8333 63.2521 36.3952 61.8955 37.3954 60.8954C38.3956 59.8952 39.7522 59.3333 41.1666 59.3333H49.1666M67.8333 53.9999V43.3333C67.8333 41.2115 66.9905 39.1767 65.4902 37.6764C63.9899 36.1761 61.955 35.3333 59.8333 35.3333L49.1666 59.3333V88.6666H79.2466C80.5329 88.6811 81.781 88.2303 82.7611 87.3973C83.7411 86.5642 84.3871 85.405 84.58 84.1333L88.26 60.1333C88.376 59.3689 88.3244 58.5884 88.1089 57.8459C87.8933 57.1034 87.5189 56.4167 87.0116 55.8333C86.5043 55.2499 85.8762 54.7837 85.1708 54.4672C84.4655 54.1506 83.6997 53.9912 82.9266 53.9999H67.8333Z" stroke="white" stroke-width="2.5" stroke-linecap="round" stroke-linejoin="round"/>
</svg>
