<svg width="124" height="123" viewBox="0 0 124 123" fill="none" xmlns="http://www.w3.org/2000/svg">
<rect x="0.5" width="123" height="123" rx="61.5" fill="#EF0454"/>
<rect x="44.5" y="44" width="36" height="36" rx="18" fill="white" fill-opacity="0.16"/>
<path d="M62.5 80.6667L81.1667 62L89.1667 70L70.5 88.6667L62.5 80.6667Z" stroke="white" stroke-width="2.5" stroke-linecap="round" stroke-linejoin="round"/>
<path d="M78.5 64.6666L74.5 44.6666L35.8334 35.3333L45.1667 73.9999L65.1667 77.9999L78.5 64.6666Z" stroke="white" stroke-width="2.5" stroke-linecap="round" stroke-linejoin="round"/>
<path d="M35.8334 35.3333L56.0627 55.5626" stroke="white" stroke-width="2.5" stroke-linecap="round" stroke-linejoin="round"/>
<path d="M59.8333 64.6667C62.7789 64.6667 65.1667 62.2789 65.1667 59.3333C65.1667 56.3878 62.7789 54 59.8333 54C56.8878 54 54.5 56.3878 54.5 59.3333C54.5 62.2789 56.8878 64.6667 59.8333 64.6667Z" stroke="white" stroke-width="2.5" stroke-linecap="round" stroke-linejoin="round"/>
</svg>
