<svg width="131" height="42" viewBox="0 0 131 42" fill="none" xmlns="http://www.w3.org/2000/svg">
<g clip-path="url(#clip0_55_96)">
<path d="M11.1348 9.18973H25.3621L14.9022 24.6935H0.674805L11.1348 9.18973Z" fill="#F50E5D"/>
<path d="M11.7579 26.1304L7.70654 32.1354H22.6088L33.0688 16.6316H22.07L15.6614 26.1304H11.7579Z" fill="white"/>
</g>
<path d="M38.6677 21.144C38.6677 19.2027 39.0877 17.476 39.9277 15.964C40.7677 14.4333 41.9343 13.248 43.4277 12.408C44.9397 11.5493 46.6477 11.12 48.5517 11.12C50.885 11.12 52.8823 11.736 54.5437 12.968C56.205 14.2 57.3157 15.88 57.8757 18.008H52.6117C52.2197 17.1867 51.6597 16.5613 50.9317 16.132C50.2223 15.7027 49.4103 15.488 48.4957 15.488C47.021 15.488 45.8263 16.0013 44.9117 17.028C43.997 18.0547 43.5397 19.4267 43.5397 21.144C43.5397 22.8613 43.997 24.2333 44.9117 25.26C45.8263 26.2867 47.021 26.8 48.4957 26.8C49.4103 26.8 50.2223 26.5853 50.9317 26.156C51.6597 25.7267 52.2197 25.1013 52.6117 24.28H57.8757C57.3157 26.408 56.205 28.088 54.5437 29.32C52.8823 30.5333 50.885 31.14 48.5517 31.14C46.6477 31.14 44.9397 30.72 43.4277 29.88C41.9343 29.0213 40.7677 27.836 39.9277 26.324C39.0877 24.812 38.6677 23.0853 38.6677 21.144ZM59.8558 23.16C59.8558 21.5547 60.1544 20.1453 60.7518 18.932C61.3678 17.7187 62.1984 16.7853 63.2438 16.132C64.2891 15.4787 65.4558 15.152 66.7438 15.152C67.8451 15.152 68.8064 15.376 69.6278 15.824C70.4678 16.272 71.1118 16.86 71.5598 17.588V15.376H76.3478V31H71.5598V28.788C71.0931 29.516 70.4398 30.104 69.5998 30.552C68.7784 31 67.8171 31.224 66.7158 31.224C65.4464 31.224 64.2891 30.8973 63.2438 30.244C62.1984 29.572 61.3678 28.6293 60.7518 27.416C60.1544 26.184 59.8558 24.7653 59.8558 23.16ZM71.5598 23.188C71.5598 21.9933 71.2238 21.0507 70.5518 20.36C69.8984 19.6693 69.0958 19.324 68.1438 19.324C67.1918 19.324 66.3798 19.6693 65.7078 20.36C65.0544 21.032 64.7278 21.9653 64.7278 23.16C64.7278 24.3547 65.0544 25.3067 65.7078 26.016C66.3798 26.7067 67.1918 27.052 68.1438 27.052C69.0958 27.052 69.8984 26.7067 70.5518 26.016C71.2238 25.3253 71.5598 24.3827 71.5598 23.188ZM84.5997 10.28V31H79.8117V10.28H84.5997ZM102.797 22.936C102.797 23.384 102.769 23.8507 102.713 24.336H91.8775C91.9522 25.3067 92.2602 26.0533 92.8015 26.576C93.3615 27.08 94.0428 27.332 94.8455 27.332C96.0402 27.332 96.8708 26.828 97.3375 25.82H102.433C102.172 26.8467 101.696 27.7707 101.005 28.592C100.333 29.4133 99.4842 30.0573 98.4575 30.524C97.4308 30.9907 96.2828 31.224 95.0135 31.224C93.4828 31.224 92.1202 30.8973 90.9255 30.244C89.7308 29.5907 88.7975 28.6573 88.1255 27.444C87.4535 26.2307 87.1175 24.812 87.1175 23.188C87.1175 21.564 87.4442 20.1453 88.0975 18.932C88.7695 17.7187 89.7028 16.7853 90.8975 16.132C92.0922 15.4787 93.4642 15.152 95.0135 15.152C96.5255 15.152 97.8695 15.4693 99.0455 16.104C100.221 16.7387 101.136 17.644 101.789 18.82C102.461 19.996 102.797 21.368 102.797 22.936ZM97.8975 21.676C97.8975 20.8547 97.6175 20.2013 97.0575 19.716C96.4975 19.2307 95.7975 18.988 94.9575 18.988C94.1548 18.988 93.4735 19.2213 92.9135 19.688C92.3722 20.1547 92.0362 20.8173 91.9055 21.676H97.8975ZM110.111 17.588C110.559 16.86 111.203 16.272 112.043 15.824C112.883 15.376 113.845 15.152 114.927 15.152C116.215 15.152 117.382 15.4787 118.427 16.132C119.473 16.7853 120.294 17.7187 120.891 18.932C121.507 20.1453 121.815 21.5547 121.815 23.16C121.815 24.7653 121.507 26.184 120.891 27.416C120.294 28.6293 119.473 29.572 118.427 30.244C117.382 30.8973 116.215 31.224 114.927 31.224C113.826 31.224 112.865 31.0093 112.043 30.58C111.222 30.132 110.578 29.544 110.111 28.816V31H105.323V10.28H110.111V17.588ZM116.943 23.16C116.943 21.9653 116.607 21.032 115.935 20.36C115.282 19.6693 114.47 19.324 113.499 19.324C112.547 19.324 111.735 19.6693 111.063 20.36C110.41 21.0507 110.083 21.9933 110.083 23.188C110.083 24.3827 110.41 25.3253 111.063 26.016C111.735 26.7067 112.547 27.052 113.499 27.052C114.451 27.052 115.263 26.7067 115.935 26.016C116.607 25.3067 116.943 24.3547 116.943 23.16ZM126.567 31.224C125.727 31.224 125.037 30.9813 124.495 30.496C123.973 29.992 123.711 29.376 123.711 28.648C123.711 27.9013 123.973 27.276 124.495 26.772C125.037 26.268 125.727 26.016 126.567 26.016C127.389 26.016 128.061 26.268 128.583 26.772C129.125 27.276 129.395 27.9013 129.395 28.648C129.395 29.376 129.125 29.992 128.583 30.496C128.061 30.9813 127.389 31.224 126.567 31.224Z" fill="white"/>
<defs>
<clipPath id="clip0_55_96">
<rect width="33.7436" height="26.32" fill="white" transform="translate(0 7.84)"/>
</clipPath>
</defs>
</svg>
