<svg width="131" height="43" viewBox="0 0 131 43" fill="none" xmlns="http://www.w3.org/2000/svg">
<g clip-path="url(#clip0_55_96)">
<path d="M11.2581 9.66089H25.4854L15.0255 25.1646H0.798096L11.2581 9.66089Z" fill="#F50E5D"/>
<path d="M11.8812 26.6015L7.82983 32.6065H22.7321L33.1921 17.1028H22.1933L15.7847 26.6015H11.8812Z" fill="#2B2B2B"/>
</g>
<path d="M38.7909 21.6151C38.7909 19.6738 39.2109 17.9471 40.0509 16.4351C40.8909 14.9045 42.0576 13.7191 43.5509 12.8791C45.0629 12.0205 46.7709 11.5911 48.6749 11.5911C51.0083 11.5911 53.0056 12.2071 54.6669 13.4391C56.3283 14.6711 57.4389 16.3511 57.9989 18.4791H52.7349C52.3429 17.6578 51.7829 17.0325 51.0549 16.6031C50.3456 16.1738 49.5336 15.9591 48.6189 15.9591C47.1443 15.9591 45.9496 16.4725 45.0349 17.4991C44.1203 18.5258 43.6629 19.8978 43.6629 21.6151C43.6629 23.3325 44.1203 24.7045 45.0349 25.7311C45.9496 26.7578 47.1443 27.2711 48.6189 27.2711C49.5336 27.2711 50.3456 27.0565 51.0549 26.6271C51.7829 26.1978 52.3429 25.5725 52.7349 24.7511H57.9989C57.4389 26.8791 56.3283 28.5591 54.6669 29.7911C53.0056 31.0045 51.0083 31.6111 48.6749 31.6111C46.7709 31.6111 45.0629 31.1911 43.5509 30.3511C42.0576 29.4925 40.8909 28.3071 40.0509 26.7951C39.2109 25.2831 38.7909 23.5565 38.7909 21.6151ZM59.9791 23.6311C59.9791 22.0258 60.2777 20.6165 60.8751 19.4031C61.4911 18.1898 62.3217 17.2565 63.3671 16.6031C64.4124 15.9498 65.5791 15.6231 66.8671 15.6231C67.9684 15.6231 68.9297 15.8471 69.7511 16.2951C70.5911 16.7431 71.2351 17.3311 71.6831 18.0591V15.8471H76.4711V31.4711H71.6831V29.2591C71.2164 29.9871 70.5631 30.5751 69.7231 31.0231C68.9017 31.4711 67.9404 31.6951 66.8391 31.6951C65.5697 31.6951 64.4124 31.3685 63.3671 30.7151C62.3217 30.0431 61.4911 29.1005 60.8751 27.8871C60.2777 26.6551 59.9791 25.2365 59.9791 23.6311ZM71.6831 23.6591C71.6831 22.4645 71.3471 21.5218 70.6751 20.8311C70.0217 20.1405 69.2191 19.7951 68.2671 19.7951C67.3151 19.7951 66.5031 20.1405 65.8311 20.8311C65.1777 21.5031 64.8511 22.4365 64.8511 23.6311C64.8511 24.8258 65.1777 25.7778 65.8311 26.4871C66.5031 27.1778 67.3151 27.5231 68.2671 27.5231C69.2191 27.5231 70.0217 27.1778 70.6751 26.4871C71.3471 25.7965 71.6831 24.8538 71.6831 23.6591ZM84.723 10.7511V31.4711H79.935V10.7511H84.723ZM102.921 23.4071C102.921 23.8551 102.893 24.3218 102.837 24.8071H92.0008C92.0755 25.7778 92.3835 26.5245 92.9248 27.0471C93.4848 27.5511 94.1661 27.8031 94.9688 27.8031C96.1635 27.8031 96.9941 27.2991 97.4608 26.2911H102.557C102.295 27.3178 101.819 28.2418 101.129 29.0631C100.457 29.8845 99.6075 30.5285 98.5808 30.9951C97.5541 31.4618 96.4061 31.6951 95.1368 31.6951C93.6061 31.6951 92.2435 31.3685 91.0488 30.7151C89.8541 30.0618 88.9208 29.1285 88.2488 27.9151C87.5768 26.7018 87.2408 25.2831 87.2408 23.6591C87.2408 22.0351 87.5675 20.6165 88.2208 19.4031C88.8928 18.1898 89.8261 17.2565 91.0208 16.6031C92.2155 15.9498 93.5875 15.6231 95.1368 15.6231C96.6488 15.6231 97.9928 15.9405 99.1688 16.5751C100.345 17.2098 101.259 18.1151 101.913 19.2911C102.585 20.4671 102.921 21.8391 102.921 23.4071ZM98.0208 22.1471C98.0208 21.3258 97.7408 20.6725 97.1808 20.1871C96.6208 19.7018 95.9208 19.4591 95.0808 19.4591C94.2781 19.4591 93.5968 19.6925 93.0368 20.1591C92.4955 20.6258 92.1595 21.2885 92.0288 22.1471H98.0208ZM110.235 18.0591C110.683 17.3311 111.327 16.7431 112.167 16.2951C113.007 15.8471 113.968 15.6231 115.051 15.6231C116.339 15.6231 117.505 15.9498 118.551 16.6031C119.596 17.2565 120.417 18.1898 121.015 19.4031C121.631 20.6165 121.939 22.0258 121.939 23.6311C121.939 25.2365 121.631 26.6551 121.015 27.8871C120.417 29.1005 119.596 30.0431 118.551 30.7151C117.505 31.3685 116.339 31.6951 115.051 31.6951C113.949 31.6951 112.988 31.4805 112.167 31.0511C111.345 30.6031 110.701 30.0151 110.235 29.2871V31.4711H105.447V10.7511H110.235V18.0591ZM117.067 23.6311C117.067 22.4365 116.731 21.5031 116.059 20.8311C115.405 20.1405 114.593 19.7951 113.623 19.7951C112.671 19.7951 111.859 20.1405 111.187 20.8311C110.533 21.5218 110.207 22.4645 110.207 23.6591C110.207 24.8538 110.533 25.7965 111.187 26.4871C111.859 27.1778 112.671 27.5231 113.623 27.5231C114.575 27.5231 115.387 27.1778 116.059 26.4871C116.731 25.7778 117.067 24.8258 117.067 23.6311ZM126.691 31.6951C125.851 31.6951 125.16 31.4525 124.619 30.9671C124.096 30.4631 123.835 29.8471 123.835 29.1191C123.835 28.3725 124.096 27.7471 124.619 27.2431C125.16 26.7391 125.851 26.4871 126.691 26.4871C127.512 26.4871 128.184 26.7391 128.707 27.2431C129.248 27.7471 129.519 28.3725 129.519 29.1191C129.519 29.8471 129.248 30.4631 128.707 30.9671C128.184 31.4525 127.512 31.6951 126.691 31.6951Z" fill="#2B2B2B"/>
<defs>
<clipPath id="clip0_55_96">
<rect width="33.7436" height="26.32" fill="white" transform="translate(0.123291 8.31116)"/>
</clipPath>
</defs>
</svg>
